<svg aria-hidden="true" style="position: absolute; width: 0; height: 0; overflow: hidden;" version="1.1" xmlns="http://www.w3.org/2000/svg" xmlns:xlink="http://www.w3.org/1999/xlink">
<defs>
<symbol id="icon-check" viewBox="0 0 43 32">
<path fill="#fbfbfb" style="fill: var(--color1, #fbfbfb)" d="M5.333 9.6l-5.333 5.333 16 16 26.667-26.667-5.333-5.333-21.333 21.333-10.667-10.667z"></path>
</symbol>
<symbol id="icon-online" viewBox="0 0 32 32">
<path fill="#fbfbfb" style="fill: var(--color1, #fbfbfb)" d="M32 16c0 8.837-7.163 16-16 16s-16-7.163-16-16c0-8.837 7.163-16 16-16s16 7.163 16 16z"></path>
<path fill="#38cd3e" style="fill: var(--color2, #38cd3e)" d="M26.667 16c0 5.891-4.776 10.667-10.667 10.667s-10.667-4.776-10.667-10.667c0-5.891 4.776-10.667 10.667-10.667s10.667 4.776 10.667 10.667z"></path>
</symbol>
<symbol id="icon-Arrow-up" viewBox="0 0 177 200">
<path fill="#fbfbfb" style="fill: var(--color1, #fbfbfb)" d="M157.725 19.684c-0.904-6.434-6.853-10.917-13.287-10.013l-104.852 14.736c-6.434 0.904-10.917 6.853-10.013 13.287s6.853 10.917 13.288 10.013l93.202-13.099 13.098 93.202c0.905 6.434 6.854 10.916 13.288 10.013 6.434-0.905 10.916-6.853 10.013-13.288l-14.737-104.851zM28.027 197.525l127.443-169.123-18.792-14.16-127.443 169.122 18.791 14.161z"></path>
</symbol>
<symbol id="icon-mdi_user" viewBox="0 0 32 32">
<path d="M16 5.333c1.415 0 2.771 0.562 3.771 1.562s1.562 2.357 1.562 3.771-0.562 2.771-1.562 3.771c-1 1-2.357 1.562-3.771 1.562s-2.771-0.562-3.771-1.562c-1-1-1.562-2.357-1.562-3.771s0.562-2.771 1.562-3.771c1-1 2.357-1.562 3.771-1.562zM16 18.667c5.893 0 10.667 2.387 10.667 5.333v2.667h-21.333v-2.667c0-2.947 4.773-5.333 10.667-5.333z"></path>
</symbol>
<symbol id="icon-heart" viewBox="0 0 32 32">
<path stroke-linejoin="round" stroke-linecap="butt" stroke-miterlimit="4" stroke-width="2.4615" d="M25.403 4.554c-0.898-0.369-1.846-0.566-2.806-0.566s-1.92 0.197-2.806 0.566c-0.898 0.369-1.698 0.911-2.388 1.588l-1.403 1.415-1.415-1.415c-1.378-1.378-3.249-2.154-5.194-2.154s-3.803 0.775-5.182 2.154c-1.378 1.378-2.154 3.237-2.154 5.182s0.775 3.815 2.154 5.194l1.415 1.415 10.375 10.363 11.778-11.778c0.689-0.689 1.231-1.489 1.588-2.388 0.369-0.886 0.566-1.834 0.566-2.806 0-0.96-0.197-1.908-0.566-2.806-0.357-0.886-0.898-1.698-1.588-2.375-0.677-0.677-1.489-1.218-2.375-1.588z"></path>
</symbol>
<symbol id="icon-clock" viewBox="0 0 200 200">
<path stroke-linejoin="round" stroke-linecap="round" stroke-miterlimit="4" stroke-width="15" d="M100 183.333c46.024 0 83.333-37.31 83.333-83.333s-37.309-83.333-83.333-83.333c-46.024 0-83.333 37.31-83.333 83.333s37.31 83.333 83.333 83.333z"></path>
<path stroke-linejoin="round" stroke-linecap="round" stroke-miterlimit="4" stroke-width="15" d="M100 50v50l33.333 16.667"></path>
</symbol>
<symbol id="icon-chevron-down" viewBox="0 0 200 200">
<path fill="none" stroke="#fbfbfb" style="stroke: var(--color1, #fbfbfb)" stroke-linejoin="round" stroke-linecap="round" stroke-miterlimit="4" stroke-width="20" d="M50 75l50 50 50-50"></path>
</symbol>
<symbol id="icon-eye" viewBox="0 0 200 200">
<path stroke-linejoin="round" stroke-linecap="round" stroke-miterlimit="4" stroke-width="20" d="M8.333 100c0 0 33.333-66.666 91.667-66.666s91.666 66.666 91.666 66.666c0 0-33.333 66.667-91.666 66.667s-91.667-66.667-91.667-66.667z"></path>
<path stroke-linejoin="round" stroke-linecap="round" stroke-miterlimit="4" stroke-width="20" d="M100 125c13.807 0 25-11.193 25-25s-11.193-25-25-25c-13.807 0-25 11.193-25 25s11.193 25 25 25z"></path>
</symbol>
<symbol id="icon-eye-off" viewBox="0 0 200 200">
<path stroke-linejoin="round" stroke-linecap="round" stroke-miterlimit="4" stroke-width="20" d="M149.5 149.499c-14.245 10.859-31.591 16.874-49.5 17.167-58.333 0-91.667-66.667-91.667-66.667 10.366-19.318 24.743-36.195 42.167-49.5M82.5 35.333c5.736-1.343 11.609-2.014 17.5-2 58.333 0 91.666 66.667 91.666 66.667-5.058 9.464-11.091 18.373-18 26.584M117.666 117.666c-2.288 2.456-5.048 4.426-8.115 5.793s-6.377 2.101-9.734 2.16-6.691-0.558-9.804-1.816c-3.113-1.257-5.941-3.128-8.315-5.502s-4.245-5.202-5.503-8.315c-1.257-3.113-1.875-6.447-1.816-9.804s0.794-6.667 2.16-9.734 3.337-5.827 5.793-8.115"></path>
<path stroke-linejoin="round" stroke-linecap="round" stroke-miterlimit="4" stroke-width="20" d="M8.333 8.334l183.333 183.333"></path>
</symbol>
<symbol id="icon-Arrow-inline" viewBox="0 0 250 200">
<path fill="#fbfbfb" style="fill: var(--color1, #fbfbfb)" d="M246.474 106.722c4.795-4.966 4.657-12.879-0.309-17.675l-80.926-78.149c-4.965-4.796-12.879-4.657-17.675 0.309-4.795 4.966-4.657 12.879 0.309 17.675l71.934 69.466-69.465 71.934c-4.796 4.966-4.657 12.879 0.309 17.675 4.965 4.795 12.879 4.657 17.675-0.309l78.149-80.926zM12.734 114.463l224.966-3.927-0.436-24.996-224.966 3.927 0.436 24.996z"></path>
</symbol>
<symbol id="icon-map-pin" viewBox="0 0 200 200">
<path stroke-linejoin="round" stroke-linecap="round" stroke-miterlimit="4" stroke-width="18.75" d="M175 83.333c0 58.333-75 108.333-75 108.333s-75-50-75-108.333c0-19.891 7.902-38.968 21.967-53.033s33.142-21.967 53.033-21.967c19.891 0 38.968 7.902 53.032 21.967 14.066 14.065 21.968 33.142 21.968 53.033z"></path>
<path stroke-linejoin="round" stroke-linecap="round" stroke-miterlimit="4" stroke-width="18.75" d="M100 108.333c13.807 0 25-11.193 25-25s-11.193-25-25-25c-13.807 0-25 11.193-25 25s11.193 25 25 25z"></path>
</symbol>
<symbol id="icon-I" viewBox="0 0 53 200">
<path fill="#f03f3b" style="fill: var(--color2, #f03f3b)" d="M6.933 9.6h33.333v190.4h-33.333v-190.4z"></path>
</symbol>
<symbol id="icon-star" viewBox="0 0 213 200">
<path fill="#ffc531" style="fill: var(--color3, #ffc531); stroke: var(--color3, #ffc531)" stroke="#ffc531" stroke-linejoin="miter" stroke-linecap="butt" stroke-miterlimit="4" stroke-width="16" d="M82.67 62.627l23.997-45.483 23.997 45.483c2.122 4.022 5.991 6.833 10.471 7.608l50.673 8.768-35.841 36.878c-3.169 3.261-4.648 7.808-4 12.31l7.32 50.902-46.148-22.691c-4.081-2.008-8.862-2.007-12.943 0l-46.149 22.691 7.32-50.902c0.647-4.502-0.83-9.048-4-12.31l-35.842-36.878 50.673-8.768c4.481-0.775 8.349-3.586 10.471-7.608zM193.569 77.19v0zM51.779 180.207c0.001 0 0.001 0 0.002 0h-0.002z"></path>
</symbol>
<symbol id="icon-x" viewBox="0 0 32 32">
<path stroke-linejoin="round" stroke-linecap="round" stroke-miterlimit="4" stroke-width="2.5" d="M24 8l-16 16"></path>
<path stroke-linejoin="round" stroke-linecap="round" stroke-miterlimit="4" stroke-width="2.5" d="M8 8l16 16"></path>
</symbol>
</defs>
</svg>
